<svg xmlns="http://www.w3.org/2000/svg" viewBox="0 0 223.44 115.18"><defs><style>.cls-1{fill:#ea8000;}</style></defs><title>nw gold</title><g id="Layer_2" data-name="Layer 2"><g id="Layer_1-2" data-name="Layer 1"><path class="cls-1" d="M38.3,23.9V6H51.07V43.82l-38.3-23.9V37.85H0V0Z"/><path class="cls-1" d="M210.67,6l12.77,8V37.85H172.37V6Zm0,12-6.38-4H185.14V29.88h25.53Z"/><path class="cls-1" d="M91.34,51.66V44.88l-4,1.23a12.35,12.35,0,0,0,.49,1.37A19.09,19.09,0,0,0,91.34,51.66Z"/><path class="cls-1" d="M89.93,72.16a5.23,5.23,0,0,1-3-6.4,3.61,3.61,0,0,1,.44-1,3.12,3.12,0,0,1,.25-.35,4.44,4.44,0,0,1,.42-.47,3.37,3.37,0,0,1,.34-.27,3.08,3.08,0,0,1,.47-.3c.1-.06.23-.11.35-.17l.3-.12.29-.07A4.6,4.6,0,0,1,91,62.85l.37,0V61.12l-.51-.34a44.34,44.34,0,0,1-5.65-4.19,19.51,19.51,0,0,1-5.67-8.07l-11,3.39V73L45.67,58.94,22.84,73V48.39H0v59.76L45.67,80l45.67,28.12V72.54A6.46,6.46,0,0,1,89.93,72.16Z"/><path class="cls-1" d="M131.76,43.4v8A18,18,0,0,0,135,47.49a12.48,12.48,0,0,0,.9-7.1l-.09-.06A9.18,9.18,0,0,1,131.76,43.4Z"/><path class="cls-1" d="M200.27,48.39V80L144.11,45.45a18.6,18.6,0,0,1-6.46,11.14A45.06,45.06,0,0,1,132,60.78l-.24.16v1.92h.1A4.66,4.66,0,0,1,133,63l.29.07.34.14a2.9,2.9,0,0,1,.33.16,3.49,3.49,0,0,1,.43.28,2.52,2.52,0,0,1,.37.29,3.76,3.76,0,0,1,.44.51,1.56,1.56,0,0,1,.21.29,3.87,3.87,0,0,1,.45,1,5.23,5.23,0,0,1-3,6.4,7.26,7.26,0,0,1-1.14.33v32.15H154.6V73l68.5,42.18V48.39Z"/><path class="cls-1" d="M141.61,38.5a9,9,0,0,0-4.89-5.39A2.56,2.56,0,0,0,132,34.46a2.5,2.5,0,0,0,.26,1.09c-.08.89-.64,3.16-4.32,3.62.3-.92.6-1.69.85-2.29h1.43V36.3a2.21,2.21,0,0,0-2.2-2.2H94.93a2.1,2.1,0,0,0-1.06.29h0a0,0,0,0,0,0,0,2.16,2.16,0,0,0-.35.24l0,0a2.14,2.14,0,0,0-.69,1.25h0a2.21,2.21,0,0,0,0,.37v.58h1.43c.09.2.18.43.27.67l0,.11c.09.25.2.53.3.83l0,.09c.07.19.13.4.2.6-3.77-.43-4.35-2.74-4.42-3.64a2.5,2.5,0,0,0,.26-1.09,2.56,2.56,0,0,0-4.74-1.35,9,9,0,0,0-4.89,5.39c-1.53,4.44-1,11.09,5.27,16.59s9.12,4.72,9.12,9.44-3.62,4.12-4,3.14a1.44,1.44,0,0,0,.49-2.53,2.61,2.61,0,0,0-2-.16h0L90,65l-.22.1-.21.14-.18.13a2.31,2.31,0,0,0-.2.24.83.83,0,0,0-.11.15,1.9,1.9,0,0,0-.22.5,3.25,3.25,0,0,0,1.81,4c1.65.66,5.22.61,6.54-2.08a8.61,8.61,0,0,0,.68-4.42c.06.2.11.41.17.61l.12.39q.13.39.27.75l.12.33c.14.34.29.66.44,1,2.26,4.28,5,7.4,9.23,8.42v2a5.43,5.43,0,0,0,0,6.25v.61a8.89,8.89,0,0,1-.41,2.64c-.07.21-.15.4-.23.6l-.2.48c-.08.16-.17.32-.26.48s-.18.34-.28.5l-.27.38c-.13.18-.26.36-.4.52l-.27.3c-.16.18-.32.35-.5.52a6.68,6.68,0,0,1-.57.49l-.12.1a7.25,7.25,0,0,1-.79.53l0,0a8.69,8.69,0,0,1-.86.44l-.19.09a9.11,9.11,0,0,1-.92.33v.15h-1.83a2.2,2.2,0,0,0-2.19,2.2h0v.95H97a2.21,2.21,0,0,0-2.2,2.2v9.67h33.29V98.05a2.2,2.2,0,0,0-2.19-2.2H125V94.9h0a2.21,2.21,0,0,0-2.2-2.2H121v-.15a8.92,8.92,0,0,1-.91-.33l-.2-.09c-.29-.13-.58-.28-.86-.44l0,0a8.23,8.23,0,0,1-.78-.53l-.13-.1a9.19,9.19,0,0,1-.75-.65h0a8.19,8.19,0,0,1-.68-.76l0-.05a8.7,8.7,0,0,1-1.5-2.8h0a8.89,8.89,0,0,1-.41-2.64v-.61a5.43,5.43,0,0,0,0-6.25v-2c3.78-.9,6.3-3.44,8.4-7h0c.28-.47.56-1,.83-1.47.16-.3.3-.62.44-1,0-.11.08-.22.13-.33s.18-.49.26-.75l.12-.39a.93.93,0,0,0,0-.13,8.35,8.35,0,0,0,.71,3.94c1.32,2.69,4.89,2.74,6.54,2.08a3.25,3.25,0,0,0,1.81-4,1.9,1.9,0,0,0-.22-.5.53.53,0,0,0-.11-.14,1.27,1.27,0,0,0-.21-.25,1.09,1.09,0,0,0-.17-.13l-.22-.15-.21-.09a.59.59,0,0,0-.14-.06h0a2.64,2.64,0,0,0-2,.16,1.44,1.44,0,0,0,.5,2.53c-.33,1-4,1.59-4-3.14s2.86-4,9.12-9.44S143.14,42.94,141.61,38.5Zm-15.28,21a7,7,0,0,0-.67,1.25v-.11s0-.05,0-.07l.06-.45c0-.28.08-.55.11-.83s0-.36.07-.53,0-.1,0-.15h0c0-.46.1-.93.14-1.39,0,0,0-.09,0-.14l.12-1.53c0-.12,0-.24,0-.36,0-.43,0-.86.08-1.29,0-.16,0-.31,0-.46,0-.41,0-.81,0-1.2,0-.15,0-.3,0-.45,0-.43,0-.85,0-1.27v-.07h0c.07-2.13.13-4.05.25-5.48a24.86,24.86,0,0,1,.39-2.69c5.36-.19,7.56-3,8.2-5.42a2.63,2.63,0,0,0,.42-.17c3.21,1.89,2.75,7.74,1.12,11.54C135.53,51.3,127.76,57.61,126.33,59.53Zm-29.84,0C95.07,57.61,87.3,51.3,86,48.27c-1.63-3.8-2.09-9.65,1.12-11.54a3,3,0,0,0,.41.17c.65,2.43,2.87,5.27,8.31,5.43A24.32,24.32,0,0,1,96.23,45c.27,3.14.21,8.63.76,13.64h0a.59.59,0,0,0,0,.13l.06.56c0,.28.07.55.11.81s0,.38.08.57,0,.33.08.49A6.37,6.37,0,0,0,96.49,59.53Z"/><path class="cls-1" d="M79.33,37.84a11.06,11.06,0,0,1,5.47-6.33,4.56,4.56,0,0,1,7.75,1.34l.35-.22.14-.07a4.18,4.18,0,0,1,1.89-.46h15l1.78-2.22H70.22v-4h31.92l6.39-8H70.22v-4h35.12l6.38-8H57.46V37.85H79.33Z"/><path class="cls-1" d="M127.68,25.89H159.6l6.39-8H127.68v-4h35.11l6.39-8H114.91V32.1H128a4.2,4.2,0,0,1,2.3.68,4.58,4.58,0,0,1,4.25-2.89A4.51,4.51,0,0,1,138,31.52a11,11,0,0,1,5.47,6.32h19.29l6.39-8h-41.5Z"/></g></g></svg>