<svg xmlns="http://www.w3.org/2000/svg" viewBox="0 0 223.44 115.18"><defs><style>.cls-1{isolation:isolate;}.cls-2{fill:#ea8000;}.cls-3{fill:#c46600;}.cls-4{fill:#ffb948;}.cls-5{fill:#ed9f2e;}.cls-6{fill:#ffd0ca;mix-blend-mode:soft-light;}.cls-7{fill:#2d2d2d;}</style></defs><title>nw original</title><g class="cls-1"><g id="Layer_2" data-name="Layer 2"><g id="Layer_1-2" data-name="Layer 1"><path d="M38.3,23.9V6H51.07V43.82l-38.3-23.9V37.85H0V0Z"/><path d="M210.67,6l12.77,8V37.85H172.37V6Zm0,12-6.38-4H185.14V29.88h25.53Z"/><path class="cls-2" d="M91.34,51.66V44.88l-4,1.23a12.35,12.35,0,0,0,.49,1.37A19.09,19.09,0,0,0,91.34,51.66Z"/><path class="cls-2" d="M89.93,72.16a5.23,5.23,0,0,1-3-6.4,3.61,3.61,0,0,1,.44-1,3.12,3.12,0,0,1,.25-.35,4.44,4.44,0,0,1,.42-.47,3.37,3.37,0,0,1,.34-.27,3.08,3.08,0,0,1,.47-.3c.1-.06.23-.11.35-.17l.3-.12.29-.07A4.6,4.6,0,0,1,91,62.85l.37,0V61.12l-.51-.34a44.34,44.34,0,0,1-5.65-4.19,19.51,19.51,0,0,1-5.67-8.07l-11,3.39V73L45.67,58.94,22.84,73V48.39H0v59.76L45.67,80l45.67,28.12V72.54A6.46,6.46,0,0,1,89.93,72.16Z"/><path class="cls-2" d="M131.76,43.4v8A18,18,0,0,0,135,47.49a12.48,12.48,0,0,0,.9-7.1l-.09-.06A9.18,9.18,0,0,1,131.76,43.4Z"/><path class="cls-2" d="M200.27,48.39V80L144.11,45.45a18.6,18.6,0,0,1-6.46,11.14A45.06,45.06,0,0,1,132,60.78l-.24.16v1.92h.1A4.66,4.66,0,0,1,133,63l.29.07.34.14a2.9,2.9,0,0,1,.33.16,3.49,3.49,0,0,1,.43.28,2.52,2.52,0,0,1,.37.29,3.76,3.76,0,0,1,.44.51,1.56,1.56,0,0,1,.21.29,3.87,3.87,0,0,1,.45,1,5.23,5.23,0,0,1-3,6.4,7.26,7.26,0,0,1-1.14.33v32.15H154.6V73l68.5,42.18V48.39Z"/><path class="cls-2" d="M88.64,32.67c-1.49-.38-5.83,1.21-7.42,5.83-1.53,4.44-1,11.09,5.27,16.59s9.12,4.72,9.12,9.44-3.62,4.12-4,3.14a1.44,1.44,0,0,0,.49-2.53c-.93-.55-2.85-.44-3.29,1.15a3.25,3.25,0,0,0,1.81,4c1.65.66,5.22.61,6.54-2.08a9.55,9.55,0,0,0-.72-8.69C95.07,57.61,87.3,51.3,86,48.27c-1.81-4.23-2.2-11,2.31-12C89.57,33.06,88.64,32.67,88.64,32.67Z"/><path class="cls-2" d="M96.15,42.34c-7-.06-8.83-4.45-8.83-7h3.26c0,.65.27,3.91,5.6,3.95Z"/><path class="cls-3" d="M97.21,68.22a9.55,9.55,0,0,0-.72-8.69C95.07,57.61,87.3,51.3,86,48.27c-1.81-4.23-2.2-11,2.31-12a10.88,10.88,0,0,0,.57-1.84,7,7,0,0,0-5.63,6.26c-.73,6.22,1.17,9.52,4.33,12.23,4.29,3.69,4.83,4.1,7.47,6.74a6.4,6.4,0,0,1,1,7.84,4.14,4.14,0,0,1-4.25,2,2.73,2.73,0,0,1-2.19-3.22,2.82,2.82,0,0,1,.5-1.25,1.88,1.88,0,0,0-1.27,1.32,3.25,3.25,0,0,0,1.81,4C92.32,71,95.89,70.91,97.21,68.22Z"/><path class="cls-3" d="M96.16,41.32c-6.41-.59-7.17-4-7.36-6H87.32c0,2.58,1.86,7,8.83,7Z"/><path class="cls-2" d="M90.85,34.46a2.57,2.57,0,1,1-2.57-2.57A2.57,2.57,0,0,1,90.85,34.46Z"/><path class="cls-4" d="M90,34.46a1.69,1.69,0,1,1-1.69-1.69A1.69,1.69,0,0,1,90,34.46Z"/><path class="cls-2" d="M134.19,32.67c1.48-.38,5.82,1.21,7.42,5.83,1.53,4.44,1,11.09-5.28,16.59s-9.12,4.72-9.12,9.44,3.63,4.12,4,3.14a1.44,1.44,0,0,1-.5-2.53c.94-.55,2.86-.44,3.3,1.15a3.25,3.25,0,0,1-1.81,4c-1.65.66-5.22.61-6.54-2.08a9.55,9.55,0,0,1,.71-8.69c1.43-1.92,9.2-8.23,10.5-11.26,1.81-4.23,2.19-11-2.31-12C133.26,33.06,134.19,32.67,134.19,32.67Z"/><path class="cls-2" d="M126.68,42.34c7-.06,8.83-4.45,8.83-7h-3.26c0,.65-.27,3.91-5.6,3.95Z"/><path class="cls-3" d="M125.62,68.22a9.55,9.55,0,0,1,.71-8.69c1.43-1.92,9.2-8.23,10.5-11.26,1.81-4.23,2.19-11-2.31-12A10.88,10.88,0,0,1,134,34.4a6.92,6.92,0,0,1,5.62,6.26c.74,6.22-1.17,9.52-4.32,12.23-4.29,3.69-4.83,4.1-7.47,6.74a6.4,6.4,0,0,0-1,7.84,4.15,4.15,0,0,0,4.25,2,2.74,2.74,0,0,0,2.2-3.22,2.83,2.83,0,0,0-.51-1.25A1.87,1.87,0,0,1,134,66.29a3.25,3.25,0,0,1-1.81,4C130.51,71,126.94,70.91,125.62,68.22Z"/><path class="cls-3" d="M126.67,41.32c6.41-.59,7.17-4,7.36-6h1.48c0,2.58-1.86,7-8.83,7Z"/><path class="cls-2" d="M132,34.46a2.57,2.57,0,1,0,2.57-2.57A2.57,2.57,0,0,0,132,34.46Z"/><path class="cls-4" d="M132.86,34.46a1.69,1.69,0,1,0,1.69-1.69A1.68,1.68,0,0,0,132.86,34.46Z"/><path class="cls-2" d="M114.69,84.13V71.38h-6.45V84.13a8.82,8.82,0,0,1-6.3,8.42v.37h19v-.37A8.82,8.82,0,0,1,114.69,84.13Z"/><path class="cls-5" d="M101.94,92.55v.37h19v-.37a8.87,8.87,0,0,1-5.89-5.78h-7.27A8.87,8.87,0,0,1,101.94,92.55Z"/><path class="cls-2" d="M115.68,80.39c0,2.71-1.89,4.91-4.21,4.91s-4.22-2.2-4.22-4.91,1.89-4.9,4.22-4.9S115.68,77.68,115.68,80.39Z"/><path class="cls-2" d="M111.76,35.64H93.59A28,28,0,0,1,96.23,45c.44,5.13,0,16.56,2.78,21.83s6.3,8.79,12.46,8.79,9.67-3.51,12.45-8.79,2.34-16.7,2.78-21.83a28,28,0,0,1,2.64-9.37Z"/><path class="cls-3" d="M111.47,70.47c-6.28,0-11.73-4.8-14.48-11.83a24.37,24.37,0,0,0,2,8.2c2.79,5.28,6.3,8.79,12.46,8.79s9.67-3.51,12.45-8.79a24.37,24.37,0,0,0,2-8.2C123.2,65.67,117.75,70.47,111.47,70.47Z"/><path class="cls-2" d="M130.2,36.88V36.3a2.21,2.21,0,0,0-2.2-2.2H94.93a2.21,2.21,0,0,0-2.2,2.2v.58Z"/><path class="cls-3" d="M92.73,36.3v.58H130.2V36.3a2.21,2.21,0,0,0,0-.37H92.77A2.21,2.21,0,0,0,92.73,36.3Z"/><path class="cls-6" d="M93.86,34.39a2.19,2.19,0,0,0-1.09,1.54h0a2.21,2.21,0,0,0,0,.37v.58h1.43a30.34,30.34,0,0,1,1.3,3.81l27.63,27.63c.28-.48.56-1,.83-1.48a13.05,13.05,0,0,0,.72-1.68Z"/><path class="cls-6" d="M125.07,63.71c1-3.87,1.23-9,1.38-13.22L110.06,34.1H95.46Z"/><path class="cls-2" d="M125,96.14V94.9a2.21,2.21,0,0,0-2.2-2.2H100.11a2.2,2.2,0,0,0-2.19,2.2v1.24Z"/><rect class="cls-3" x="97.92" y="94.9" width="27.1" height="1.24"/><path class="cls-6" d="M107.79,86.89a8.77,8.77,0,0,1-2.47,3.75l5.5,5.5H117Z"/><path class="cls-7" d="M128.11,107.72V98.05a2.2,2.2,0,0,0-2.19-2.2H97a2.21,2.21,0,0,0-2.2,2.2v9.67Z"/><rect x="94.82" y="105.85" width="33.29" height="1.87"/><path d="M79.33,37.84a11.06,11.06,0,0,1,5.47-6.33,4.56,4.56,0,0,1,7.75,1.34l.35-.22.14-.07a4.18,4.18,0,0,1,1.89-.46h15l1.78-2.22H70.22v-4h31.92l6.39-8H70.22v-4h35.12l6.38-8H57.46V37.85H79.33Z"/><path d="M127.68,25.89H159.6l6.39-8H127.68v-4h35.11l6.39-8H114.91V32.1H128a4.2,4.2,0,0,1,2.3.68,4.58,4.58,0,0,1,4.25-2.89A4.51,4.51,0,0,1,138,31.52a11,11,0,0,1,5.47,6.32h19.29l6.39-8h-41.5Z"/></g></g></g></svg>